<svg width="57" height="57" viewBox="0 0 57 57" fill="none" xmlns="http://www.w3.org/2000/svg">
<g clip-path="url(#clip0_23_34)">
<path d="M10.1786 54.6386C14.6758 54.6386 18.3214 50.9929 18.3214 46.4957C18.3214 41.9985 14.6758 38.3528 10.1786 38.3528C5.6814 38.3528 2.03572 41.9985 2.03572 46.4957C2.03572 50.9929 5.6814 54.6386 10.1786 54.6386Z" stroke="#545454" stroke-width="4.28571" stroke-linecap="round" stroke-linejoin="round"/>
<path d="M46.8214 44.46C51.3186 44.46 54.9643 40.8143 54.9643 36.3171C54.9643 31.82 51.3186 28.1743 46.8214 28.1743C42.3243 28.1743 38.6786 31.82 38.6786 36.3171C38.6786 40.8143 42.3243 44.46 46.8214 44.46Z" stroke="#545454" stroke-width="4.28571" stroke-linecap="round" stroke-linejoin="round"/>
<path d="M54.9643 36.3171V4.39714C54.9626 4.08564 54.8893 3.7787 54.7503 3.49994C54.6113 3.22119 54.4101 2.97806 54.1623 2.78928C53.9146 2.60049 53.6268 2.47109 53.3211 2.41103C53.0154 2.35097 52.7001 2.36186 52.3993 2.44285L19.8279 11.4814C19.3974 11.5973 19.017 11.8513 18.7448 12.2043C18.4727 12.5574 18.3239 12.99 18.3214 13.4357V46.4957M18.3214 24.1029L54.9643 13.9243" stroke="#545454" stroke-width="4.28571" stroke-linecap="round" stroke-linejoin="round"/>
</g>
<defs>
<clipPath id="clip0_23_34">
<rect width="57" height="57" fill="white"/>
</clipPath>
</defs>
</svg>
