<svg width="60" height="60" viewBox="0 0 60 60" fill="none" xmlns="http://www.w3.org/2000/svg">
<path d="M30 5C26.717 5 23.4661 5.64664 20.4329 6.90301C17.3998 8.15938 14.6438 10.0009 12.3223 12.3223C7.63392 17.0107 5 23.3696 5 30C5 36.6304 7.63392 42.9893 12.3223 47.6777C14.6438 49.9991 17.3998 51.8406 20.4329 53.097C23.4661 54.3534 26.717 55 30 55C36.6304 55 42.9893 52.3661 47.6777 47.6777C52.3661 42.9893 55 36.6304 55 30C55 26.717 54.3534 23.4661 53.097 20.4329C51.8406 17.3998 49.9991 14.6438 47.6777 12.3223C45.3562 10.0009 42.6002 8.15938 39.5671 6.90301C36.5339 5.64664 33.283 5 30 5ZM17.675 45.7C18.75 43.45 25.3 41.25 30 41.25C34.7 41.25 41.25 43.45 42.325 45.7C38.8235 48.4901 34.4772 50.0064 30 50C25.35 50 21.075 48.4 17.675 45.7ZM45.9 42.075C42.325 37.725 33.65 36.25 30 36.25C26.35 36.25 17.675 37.725 14.1 42.075C11.4405 38.6116 9.99916 34.3668 10 30C10 18.975 18.975 10 30 10C41.025 10 50 18.975 50 30C50 34.55 48.45 38.75 45.9 42.075ZM30 15C25.15 15 21.25 18.9 21.25 23.75C21.25 28.6 25.15 32.5 30 32.5C34.85 32.5 38.75 28.6 38.75 23.75C38.75 18.9 34.85 15 30 15ZM30 27.5C29.0054 27.5 28.0516 27.1049 27.3483 26.4017C26.6451 25.6984 26.25 24.7446 26.25 23.75C26.25 22.7554 26.6451 21.8016 27.3483 21.0983C28.0516 20.3951 29.0054 20 30 20C30.9946 20 31.9484 20.3951 32.6517 21.0983C33.3549 21.8016 33.75 22.7554 33.75 23.75C33.75 24.7446 33.3549 25.6984 32.6517 26.4017C31.9484 27.1049 30.9946 27.5 30 27.5Z" fill="#545454"/>
</svg>
