<svg width="68" height="60" viewBox="0 0 68 60" fill="none" xmlns="http://www.w3.org/2000/svg">
<g clip-path="url(#clip0_23_39)">
<path d="M7.5 7.5C3.36328 7.5 0 10.8633 0 15V45C0 49.1367 3.36328 52.5 7.5 52.5H60C64.1367 52.5 67.5 49.1367 67.5 45V15C67.5 10.8633 64.1367 7.5 60 7.5H7.5ZM31.875 22.5H58.125C59.1563 22.5 60 23.3437 60 24.375C60 25.4063 59.1563 26.25 58.125 26.25H31.875C30.8437 26.25 30 25.4063 30 24.375C30 23.3437 30.8437 22.5 31.875 22.5ZM30 35.625C30 34.5937 30.8437 33.75 31.875 33.75H58.125C59.1563 33.75 60 34.5937 60 35.625C60 36.6563 59.1563 37.5 58.125 37.5H31.875C30.8437 37.5 30 36.6563 30 35.625ZM19.2188 17.8125V19.4414C20.0977 19.582 20.9297 19.7813 21.6914 19.9922C22.9453 20.3203 23.6836 21.6094 23.3555 22.8633C23.0273 24.1172 21.7383 24.8555 20.4844 24.5273C19.1953 24.1875 17.9531 23.9414 16.8281 23.918C15.9023 23.9063 14.9531 24.1289 14.3086 24.5039C13.7461 24.832 13.582 25.1602 13.582 25.5937C13.582 25.8047 13.5937 26.0039 14.2031 26.3789C14.9414 26.8242 16.0195 27.1641 17.5195 27.6094L17.6016 27.6328C18.9141 28.0313 20.6016 28.5352 21.9492 29.3906C23.4609 30.3398 24.7969 31.8867 24.832 34.2656C24.8672 36.7148 23.6016 38.4961 21.9258 39.5391C21.082 40.0664 20.1445 40.3945 19.207 40.5937V42.1875C19.207 43.4766 18.1523 44.5312 16.8633 44.5312C15.5742 44.5312 14.5195 43.4766 14.5195 42.1875V40.4766C13.3125 40.2187 12.1758 39.832 11.2148 39.4922C10.9687 39.4102 10.7344 39.3281 10.5 39.2461C9.26953 38.8359 8.61328 37.5117 9.02344 36.2813C9.43359 35.0508 10.7578 34.3945 11.9883 34.8047C12.2813 34.8984 12.5625 35.0039 12.832 35.0859C14.4258 35.625 15.6445 36.0352 16.9453 36.082C17.9531 36.1172 18.8789 35.8945 19.4531 35.5313C19.9336 35.2383 20.1562 34.8867 20.1445 34.3008C20.1445 33.9609 20.0508 33.7148 19.4531 33.3398C18.7148 32.8711 17.6484 32.5312 16.1719 32.0859L15.9727 32.0273C14.6953 31.6406 13.0898 31.1602 11.8008 30.3867C10.3125 29.4844 8.91797 27.9844 8.90625 25.6172C8.89453 23.1445 10.2891 21.4336 11.9297 20.4727C12.7383 19.9922 13.6289 19.6758 14.5312 19.4766V17.8125C14.5312 16.5234 15.5859 15.4688 16.875 15.4688C18.1641 15.4688 19.2188 16.5234 19.2188 17.8125Z" fill="#545454"/>
</g>
<defs>
<clipPath id="clip0_23_39">
<rect width="67.5" height="60" fill="white"/>
</clipPath>
</defs>
</svg>
