<svg width="60" height="60" viewBox="0 0 60 60" fill="none" xmlns="http://www.w3.org/2000/svg">
<path d="M18.8125 39.75L10.3125 48.25C9.8125 48.75 9.21833 48.99 8.53 48.97C7.84167 48.95 7.26917 48.71 6.8125 48.25C6.3125 47.75 6.0625 47.1558 6.0625 46.4675C6.0625 45.7792 6.29167 45.2067 6.75 44.75L15.25 36.25C16.5417 34.9583 17.4275 33.3442 17.9075 31.4075C18.3875 29.4708 18.6267 26.5017 18.625 22.5C18.625 20.0833 19.1667 17.7083 20.25 15.375C21.3333 13.0417 22.875 10.875 24.875 8.875C28.6667 5.08334 32.8542 2.9375 37.4375 2.4375C42.0208 1.9375 45.7917 3.20833 48.75 6.25C51.75 9.25 53 13.0417 52.5 17.625C52 22.2083 49.875 26.375 46.125 30.125C44.125 32.125 41.9583 33.6667 39.625 34.75C37.2917 35.8333 34.9167 36.375 32.5 36.375C28.4583 36.375 25.5 36.6042 23.625 37.0625C21.75 37.5208 20.1458 38.4167 18.8125 39.75ZM25.75 29.125C27.7083 31.0417 30.3542 31.75 33.6875 31.25C37.0208 30.75 40 29.1875 42.625 26.5625C45.2917 23.8958 46.8858 20.9058 47.4075 17.5925C47.9292 14.2792 47.21 11.6858 45.25 9.8125C43.25 7.8125 40.635 7.0625 37.405 7.5625C34.175 8.0625 31.2067 9.64584 28.5 12.3125C25.875 14.9375 24.2808 17.9067 23.7175 21.22C23.1542 24.5333 23.8317 27.1683 25.75 29.125ZM45 57.5C42.25 57.5 39.8958 56.5208 37.9375 54.5625C35.9792 52.6042 35 50.25 35 47.5C35 44.75 35.9792 42.3958 37.9375 40.4375C39.8958 38.4792 42.25 37.5 45 37.5C47.75 37.5 50.1042 38.4792 52.0625 40.4375C54.0208 42.3958 55 44.75 55 47.5C55 50.25 54.0208 52.6042 52.0625 54.5625C50.1042 56.5208 47.75 57.5 45 57.5Z" fill="#545454"/>
</svg>
