<svg width="55" height="55" viewBox="0 0 60 60" fill="none" xmlns="http://www.w3.org/2000/svg">
<g clip-path="url(#clip0_23_49)">
<path d="M45 36.4286C44.9998 40.023 44.0953 43.5597 42.37 46.713C40.6447 49.8662 38.1538 52.5349 35.1268 54.4732C32.0997 56.4115 28.6337 57.5572 25.0478 57.8048C21.4619 58.0525 17.8713 57.3941 14.6066 55.8903C11.3418 54.3866 8.50777 52.0857 6.36532 49.1995C4.22287 46.3134 2.84086 42.9346 2.3465 39.3744C1.85213 35.8141 2.2613 32.1866 3.53634 28.8259C4.81138 25.4652 6.91132 22.4793 9.64286 20.1429" stroke="#545454" stroke-width="4.28571" stroke-linecap="round" stroke-linejoin="round"/>
<path d="M22.6286 28.5C22.1757 29.4351 21.9412 30.461 21.9429 31.5C21.9372 32.3627 22.1029 33.2179 22.4304 34.016C22.7579 34.8142 23.2407 35.5393 23.8507 36.1493C24.4607 36.7593 25.1859 37.2421 25.984 37.5696C26.7821 37.8971 27.6373 38.0628 28.5 38.0571C29.3752 38.0571 30.2146 38.4048 30.8335 39.0237C31.4523 39.6426 31.8 40.4819 31.8 41.3571V56.2286M2.44287 39.7286H10.3714C11.2525 39.7057 12.1292 39.8595 12.9498 40.1809C13.7705 40.5023 14.5184 40.9848 15.1496 41.6C15.7807 42.2152 16.2822 42.9505 16.6246 43.7626C16.9669 44.5748 17.1432 45.4472 17.1429 46.3286V56.8286M56.8286 8.01429L52.5429 6.55715C52.2416 6.45483 51.9152 6.4539 51.6134 6.5545C51.3116 6.6551 51.051 6.8517 50.8714 7.11429L47.7429 11.9571L30.6 3.38572C29.2451 2.58724 27.7305 2.09809 26.1646 1.95326C24.5986 1.80843 23.02 2.01152 21.5416 2.54797C20.0633 3.08443 18.7218 3.941 17.6132 5.0564C16.5045 6.1718 15.6561 7.51845 15.1286 9.00001C14.9832 9.38435 14.9207 9.7951 14.9453 10.2053C14.9699 10.6155 15.0809 11.0158 15.2711 11.3801C15.4614 11.7443 15.7265 12.0642 16.049 12.3188C16.3716 12.5734 16.7444 12.7568 17.1429 12.8571L28.3286 16.4571L29.4429 16.8429L31.5429 24.0429C31.6103 24.2936 31.7399 24.5232 31.9197 24.7105C32.0995 24.8978 32.3237 25.0367 32.5714 25.1143L37.6286 26.7429C37.8868 26.827 38.1622 26.8434 38.4286 26.7905C38.6949 26.7376 38.9432 26.6172 39.1497 26.4409C39.3561 26.2645 39.5138 26.0381 39.6077 25.7833C39.7016 25.5285 39.7284 25.2539 39.6857 24.9857L38.5714 19.6286H39.3L50.2286 23.1857C50.9448 23.4326 51.7295 23.3865 52.4119 23.0573C53.0942 22.7282 53.6188 22.1428 53.8714 21.4286L57.7286 9.55715C57.771 9.23657 57.7056 8.91098 57.5427 8.63165C57.3798 8.35233 57.1285 8.13514 56.8286 8.01429Z" stroke="#545454" stroke-width="4.28571" stroke-linecap="round" stroke-linejoin="round"/>
</g>
<defs>
<clipPath id="clip0_23_49">
<rect width="60" height="60" fill="white"/>
</clipPath>
</defs>
</svg>
